<svg width="36" height="30" viewBox="0 0 36 30" fill="none" xmlns="http://www.w3.org/2000/svg">
<path d="M27.9394 2.99595L24.8573 2.92905L21.7753 2.88005L15.6112 2.80375L9.4471 2.75895L3.28299 2.74521L2.13733 2.74268L2.14022 3.88797L2.15581 10.0521L2.20137 16.2162L2.2781 22.3803C2.30454 24.435 2.34819 26.4897 2.3944 28.5444L2.41483 29.453L3.28299 29.433C5.3892 29.3843 7.49501 29.3494 9.58679 29.2768L15.8248 29.0601L27.9394 28.5444L15.3976 28.0286L9.30738 27.812C7.59424 27.7503 5.89126 27.7155 4.18998 27.6767C4.22882 25.9112 4.26513 24.1457 4.2878 22.3802L4.36457 16.2161L4.4101 10.0521L4.42279 5.0281L9.44707 5.01693L15.6111 4.97216L21.7752 4.89582L24.8573 4.84686L27.0685 4.79888C27.1075 6.49881 27.1433 8.20013 27.2035 9.91171L27.4208 16.0014L27.9393 28.5444L28.4579 16.431L28.6753 10.1925C28.7462 8.10021 28.7828 5.99451 28.8313 3.88801L28.8514 3.0158L27.9394 2.99595Z" fill="#05B9A7"/>
<path d="M29.5475 0.189697L13.702 15.8829L6.89374 9.46137L0 16.7698L13.8261 29.8102L36.0001 6.30008L29.5475 0.189697Z" fill="#05B9A7"/>
<path d="M30.9908 1.57495L13.7805 18.7855L6.96714 11.9718L2.23389 16.7046L13.7805 28.2513L35.7236 6.3082L30.9908 1.57495Z" fill="#07757F"/>
</svg>
